<?xml version="1.0" encoding="UTF-8" standalone="no"?>
<!-- Created with Inkscape (http://www.inkscape.org/) -->

<svg
   xmlns:dc="http://purl.org/dc/elements/1.1/"
   xmlns:cc="http://creativecommons.org/ns#"
   xmlns:rdf="http://www.w3.org/1999/02/22-rdf-syntax-ns#"
   xmlns:svg="http://www.w3.org/2000/svg"
   xmlns="http://www.w3.org/2000/svg"
   xmlns:sodipodi="http://sodipodi.sourceforge.net/DTD/sodipodi-0.dtd"
   xmlns:inkscape="http://www.inkscape.org/namespaces/inkscape"
   version="1.1"
   id="svg2"
   xml:space="preserve"
   width="124.70667"
   height="46.080002"
   viewBox="0 0 124.70667 46.080002"
   sodipodi:docname="Logo.svg"
   inkscape:version="0.92.4 5da689c313, 2019-01-14"><metadata
     id="metadata8"><rdf:RDF><cc:Work
         rdf:about=""><dc:format>image/svg+xml</dc:format><dc:type
           rdf:resource="http://purl.org/dc/dcmitype/StillImage" /><dc:title></dc:title></cc:Work></rdf:RDF></metadata><defs
     id="defs6" /><sodipodi:namedview
     pagecolor="#ffffff"
     bordercolor="#666666"
     borderopacity="1"
     objecttolerance="10"
     gridtolerance="10"
     guidetolerance="10"
     inkscape:pageopacity="0"
     inkscape:pageshadow="2"
     inkscape:window-width="1366"
     inkscape:window-height="717"
     id="namedview4"
     showgrid="false"
     inkscape:zoom="3.1032822"
     inkscape:cx="20.784445"
     inkscape:cy="23.040001"
     inkscape:window-x="0"
     inkscape:window-y="25"
     inkscape:window-maximized="1"
     inkscape:current-layer="g10" /><g
     id="g10"
     inkscape:groupmode="layer"
     inkscape:label="ink_ext_XXXXXX"
     transform="matrix(1.3333333,0,0,-1.3333333,0,46.08)"><g
       id="g12"
       transform="scale(0.1)"><path
         d="m 465.582,156.367 c 1.922,0 2.606,-8.398 1.465,-18.926 -1.067,-10.527 -23.145,-18.925 -49.121,-18.925 -25.93,0 -47.102,0.41 -47.102,1.074 l 1.739,1.484 7.265,0.781 1.875,1.008 3.164,4.051 c 0.539,1.035 0.801,4.367 0.801,9.844 0,39.199 -0.137,75.133 -0.262,79.918 l -0.539,1.41 -3.496,3.656 -7.07,1.875 -3.477,1.36 c 0,0.746 12.676,1.128 28.215,1.128 15.516,0 28.231,-0.382 28.231,-1.128 l -2.332,-1.36 -7.747,-0.773 -1.921,-1.102 -3.157,-3.988 c -0.586,-1.078 -0.859,-4.34 -0.859,-9.84 0,-38.148 0.137,-72.973 0.363,-78.07 l 0.594,-1.485 3.664,-3.339 c 1.316,-0.235 4.441,-0.665 9.434,-0.665 4.871,0 13.484,0.43 19.109,1.075 0,0 0,0 3.75,1.867 3.684,2.148 7.004,5.437 9.687,9.773 2.715,4.375 5.313,10.899 7.727,19.297"
         style="fill:#7f2c31;fill-opacity:1;fill-rule:nonzero;stroke:none"
         id="path14"
         inkscape:connector-curvature="0" /><path
         d="m 465.582,156.367 c 1.922,0 2.606,-8.398 1.465,-18.926 -1.067,-10.527 -23.145,-18.925 -49.121,-18.925 -25.93,0 -47.102,0.41 -47.102,1.074 l 1.739,1.484 7.265,0.781 1.875,1.008 3.164,4.051 c 0.539,1.035 0.801,4.367 0.801,9.844 0,39.199 -0.137,75.133 -0.262,79.918 l -0.539,1.41 -3.496,3.656 -7.07,1.875 -3.477,1.36 c 0,0.746 12.676,1.128 28.215,1.128 15.516,0 28.231,-0.382 28.231,-1.128 l -2.332,-1.36 -7.747,-0.773 -1.921,-1.102 -3.157,-3.988 c -0.586,-1.078 -0.859,-4.34 -0.859,-9.84 0,-38.148 0.137,-72.973 0.363,-78.07 l 0.594,-1.485 3.664,-3.339 c 1.316,-0.235 4.441,-0.665 9.434,-0.665 4.871,0 13.484,0.43 19.109,1.075 0,0 0,0 3.75,1.867 3.684,2.148 7.004,5.437 9.687,9.773 2.715,4.375 5.313,10.899 7.727,19.297"
         style="fill:none;stroke:#7f2c31;stroke-width:11.18500042;stroke-linecap:butt;stroke-linejoin:round;stroke-miterlimit:4;stroke-dasharray:none;stroke-opacity:1"
         id="path16"
         inkscape:connector-curvature="0" /><path
         d="m 480.414,161.445 c 0,7.578 1.816,14.883 5.441,21.817 3.563,6.91 8.641,12.347 15.223,15.953 6.672,3.621 13.996,5.398 22.121,5.398 12.586,0 22.918,-3.898 30.926,-12.277 8.008,-8.43 12.07,-18.938 12.07,-31.574 0,-12.793 -4.062,-23.692 -12.148,-32.032 -8.164,-8.378 -18.348,-12.734 -30.652,-12.734 -7.649,0 -14.864,1.817 -21.829,5.449 -6.894,3.34 -12.148,8.782 -15.711,15.313 -3.625,6.847 -5.441,15.195 -5.441,24.687 z m 22.629,-1.113 c 0,-8.379 1.973,-14.902 5.84,-19.238 3.953,-4.715 8.699,-6.875 14.48,-6.875 5.703,0 10.489,2.16 14.336,6.875 3.906,4.336 5.86,10.859 5.86,19.668 0,8.261 -1.954,14.492 -5.86,19.179 -3.847,4.395 -8.633,6.559 -14.336,6.559 -5.781,0 -10.527,-2.164 -14.48,-6.559 -3.867,-4.687 -5.84,-11.211 -5.84,-19.609"
         style="fill:#7f2c31;fill-opacity:1;fill-rule:nonzero;stroke:none"
         id="path18"
         inkscape:connector-curvature="0" /><path
         d="m 480.414,161.445 c 0,7.578 1.816,14.883 5.441,21.817 3.563,6.91 8.641,12.347 15.223,15.953 6.672,3.621 13.996,5.398 22.121,5.398 12.586,0 22.918,-3.898 30.926,-12.277 8.008,-8.43 12.07,-18.938 12.07,-31.574 0,-12.793 -4.062,-23.692 -12.148,-32.032 -8.164,-8.378 -18.348,-12.734 -30.652,-12.734 -7.649,0 -14.864,1.817 -21.829,5.449 -6.894,3.34 -12.148,8.782 -15.711,15.313 -3.625,6.847 -5.441,15.195 -5.441,24.687 z m 22.629,-1.113 c 0,-8.379 1.973,-14.902 5.84,-19.238 3.953,-4.715 8.699,-6.875 14.48,-6.875 5.703,0 10.489,2.16 14.336,6.875 3.906,4.336 5.86,10.859 5.86,19.668 0,8.261 -1.954,14.492 -5.86,19.179 -3.847,4.395 -8.633,6.559 -14.336,6.559 -5.781,0 -10.527,-2.164 -14.48,-6.559 -3.867,-4.687 -5.84,-11.211 -5.84,-19.609"
         style="fill:none;stroke:#7f2c31;stroke-width:11.18500042;stroke-linecap:butt;stroke-linejoin:round;stroke-miterlimit:4;stroke-dasharray:none;stroke-opacity:1"
         id="path20"
         inkscape:connector-curvature="0" /><path
         d="m 657.262,161.445 v 0 c 12.304,-4.031 18.211,-17.488 13.172,-29.433 0,0 0,0 -8.067,-6.199 -7.969,-6.223 -18.183,-9.426 -30.488,-9.426 -15.274,0 -27.852,5.468 -37.676,15.957 -9.785,10.539 -14.687,25.07 -14.687,43.613 0,19.301 4.933,34.523 14.804,45.004 9.844,10.926 22.871,16.394 38.926,16.394 14.121,0 25.527,-4.371 34.356,-12.656 5.214,-5.176 9.121,-12.011 11.757,-21.422 -12.597,-2.941 -24.804,-0.816 -27.129,5.055 0,0 0,0 -4.296,3.559 -4.356,3.746 -9.551,5.195 -15.743,5.195 -8.515,0 -15.457,-2.93 -20.761,-9.172 -5.34,-6.144 -8.016,-16.297 -8.016,-30.512 0,-14.531 2.637,-25.039 7.879,-31.601 5.254,-6.074 12.031,-9.043 20.461,-9.043 6.121,0 11.434,1.75 15.906,5.84 4.453,3.925 7.649,10.136 9.602,18.847"
         style="fill:#7f2c31;fill-opacity:1;fill-rule:nonzero;stroke:none"
         id="path22"
         inkscape:connector-curvature="0" /><path
         d="m 657.262,161.445 v 0 c 12.304,-4.031 18.211,-17.488 13.172,-29.433 0,0 0,0 -8.067,-6.199 -7.969,-6.223 -18.183,-9.426 -30.488,-9.426 -15.274,0 -27.852,5.468 -37.676,15.957 -9.785,10.539 -14.687,25.07 -14.687,43.613 0,19.301 4.933,34.523 14.804,45.004 9.844,10.926 22.871,16.394 38.926,16.394 14.121,0 25.527,-4.371 34.356,-12.656 5.214,-5.176 9.121,-12.011 11.757,-21.422 -12.597,-2.941 -24.804,-0.816 -27.129,5.055 0,0 0,0 -4.296,3.559 -4.356,3.746 -9.551,5.195 -15.743,5.195 -8.515,0 -15.457,-2.93 -20.761,-9.172 -5.34,-6.144 -8.016,-16.297 -8.016,-30.512 0,-14.531 2.637,-25.039 7.879,-31.601 5.254,-6.074 12.031,-9.043 20.461,-9.043 6.121,0 11.434,1.75 15.906,5.84 4.453,3.925 7.649,10.136 9.602,18.847"
         style="fill:none;stroke:#7f2c31;stroke-width:11.18500042;stroke-linecap:butt;stroke-linejoin:round;stroke-miterlimit:4;stroke-dasharray:none;stroke-opacity:1"
         id="path24"
         inkscape:connector-curvature="0" /><path
         d="m 694.488,175.957 c 0,11.992 1.739,22.242 5.203,30.234 2.618,5.7 6.164,11.168 10.657,15.961 4.539,4.68 9.461,8.289 14.773,10.512 7.149,3.207 15.383,4.691 24.746,4.691 16.867,0 30.332,-5.468 40.488,-15.968 10.098,-10.907 15.176,-25.778 15.176,-44.688 0,-18.906 -4.98,-33.816 -15.039,-44.687 -10.047,-10.567 -23.465,-16.016 -40.332,-16.016 -17.058,0 -30.625,5.449 -40.574,16.016 -10.051,10.586 -15.098,25.402 -15.098,43.945 z m 23.926,0.742 c 0,-13.113 3.016,-23.261 8.965,-30.176 5.976,-6.796 13.562,-10.144 22.742,-10.144 9.18,0 16.719,3.348 22.629,10.144 5.906,6.915 8.828,17.063 8.828,30.469 0,13.481 -2.883,23.723 -8.625,30.258 -5.703,6.531 -13.367,9.836 -22.832,9.836 -9.531,0 -17.129,-3.305 -22.969,-9.836 -5.761,-6.914 -8.738,-17.078 -8.738,-30.551"
         style="fill:#7f2c31;fill-opacity:1;fill-rule:nonzero;stroke:none"
         id="path26"
         inkscape:connector-curvature="0" /><path
         d="m 694.488,175.957 c 0,11.992 1.739,22.242 5.203,30.234 2.618,5.7 6.164,11.168 10.657,15.961 4.539,4.68 9.461,8.289 14.773,10.512 7.149,3.207 15.383,4.691 24.746,4.691 16.867,0 30.332,-5.468 40.488,-15.968 10.098,-10.907 15.176,-25.778 15.176,-44.688 0,-18.906 -4.98,-33.816 -15.039,-44.687 -10.047,-10.567 -23.465,-16.016 -40.332,-16.016 -17.058,0 -30.625,5.449 -40.574,16.016 -10.051,10.586 -15.098,25.402 -15.098,43.945 z m 23.926,0.742 c 0,-13.113 3.016,-23.261 8.965,-30.176 5.976,-6.796 13.562,-10.144 22.742,-10.144 9.18,0 16.719,3.348 22.629,10.144 5.906,6.915 8.828,17.063 8.828,30.469 0,13.481 -2.883,23.723 -8.625,30.258 -5.703,6.531 -13.367,9.836 -22.832,9.836 -9.531,0 -17.129,-3.305 -22.969,-9.836 -5.761,-6.914 -8.738,-17.078 -8.738,-30.551"
         style="fill:none;stroke:#7f2c31;stroke-width:11.18500042;stroke-linecap:butt;stroke-linejoin:round;stroke-miterlimit:4;stroke-dasharray:none;stroke-opacity:1"
         id="path28"
         inkscape:connector-curvature="0" /><path
         d="m 817.555,156.367 v 0 c 12.5,1.426 24.531,-3.633 26.758,-10.937 0,0 0,0 4.128,-3.602 4.102,-3.586 9.688,-5.449 16.731,-5.449 7.402,0 13.047,1.434 16.805,4.715 3.789,3.281 5.644,6.875 5.644,11.269 l -2.402,7.266 c -1.582,1.816 -4.356,3.633 -8.281,5.098 -2.715,0.664 -8.868,2.531 -18.536,5.039 -12.343,2.961 -21.035,6.933 -26.015,11.269 -6.992,6.5 -10.586,14.574 -10.586,23.578 0,5.867 1.719,11.66 4.992,16.774 3.301,5.051 8.113,9.054 14.344,11.972 6.191,2.512 13.75,3.996 22.519,3.996 14.375,0 25.266,-3.21 32.473,-9.761 7.285,-6.207 11.074,-14.906 11.492,-25.824 -12.754,-0.387 -24.609,4.011 -26.308,9.437 0,0 0,0 -3.282,2.574 -3.203,2.492 -8.086,3.973 -14.629,3.973 -6.746,0 -12.011,-1.481 -15.789,-4.34 l -3.664,-6.992 3.457,-7.207 c 2.852,-2.5 9.992,-5.082 21.25,-7.598 11.25,-2.89 19.524,-5.422 24.922,-8.355 5.402,-2.93 9.551,-6.934 12.676,-12 3,-5.071 4.582,-11.301 4.582,-18.899 0,-6.562 -1.867,-13.047 -5.5,-18.925 -3.672,-5.762 -8.848,-10.137 -15.508,-13.086 -6.699,-2.879 -15,-4.356 -24.93,-4.356 -14.503,0 -25.585,3.594 -33.378,10.5 -7.774,6.942 -12.403,16.785 -13.965,29.871"
         style="fill:#7f2c31;fill-opacity:1;fill-rule:nonzero;stroke:none"
         id="path30"
         inkscape:connector-curvature="0" /><path
         d="m 817.555,156.367 v 0 c 12.5,1.426 24.531,-3.633 26.758,-10.937 0,0 0,0 4.128,-3.602 4.102,-3.586 9.688,-5.449 16.731,-5.449 7.402,0 13.047,1.434 16.805,4.715 3.789,3.281 5.644,6.875 5.644,11.269 l -2.402,7.266 c -1.582,1.816 -4.356,3.633 -8.281,5.098 -2.715,0.664 -8.868,2.531 -18.536,5.039 -12.343,2.961 -21.035,6.933 -26.015,11.269 -6.992,6.5 -10.586,14.574 -10.586,23.578 0,5.867 1.719,11.66 4.992,16.774 3.301,5.051 8.113,9.054 14.344,11.972 6.191,2.512 13.75,3.996 22.519,3.996 14.375,0 25.266,-3.21 32.473,-9.761 7.285,-6.207 11.074,-14.906 11.492,-25.824 -12.754,-0.387 -24.609,4.011 -26.308,9.437 0,0 0,0 -3.282,2.574 -3.203,2.492 -8.086,3.973 -14.629,3.973 -6.746,0 -12.011,-1.481 -15.789,-4.34 l -3.664,-6.992 3.457,-7.207 c 2.852,-2.5 9.992,-5.082 21.25,-7.598 11.25,-2.89 19.524,-5.422 24.922,-8.355 5.402,-2.93 9.551,-6.934 12.676,-12 3,-5.071 4.582,-11.301 4.582,-18.899 0,-6.562 -1.867,-13.047 -5.5,-18.925 -3.672,-5.762 -8.848,-10.137 -15.508,-13.086 -6.699,-2.879 -15,-4.356 -24.93,-4.356 -14.503,0 -25.585,3.594 -33.378,10.5 -7.774,6.942 -12.403,16.785 -13.965,29.871"
         style="fill:none;stroke:#7f2c31;stroke-width:11.18500042;stroke-linecap:butt;stroke-linejoin:round;stroke-miterlimit:4;stroke-dasharray:none;stroke-opacity:1"
         id="path32"
         inkscape:connector-curvature="0" /><path
         d="M 365.004,98.9063 H 916.918"
         style="fill:none;stroke:#7f2c31;stroke-width:6.59399986;stroke-linecap:butt;stroke-linejoin:miter;stroke-miterlimit:4;stroke-dasharray:none;stroke-opacity:1"
         id="path34"
         inkscape:connector-curvature="0" /><path
         d="m 403.031,13.5742 c -1.328,1.0742 -2.324,2.4024 -2.988,3.9766 0,3.2305 2.148,5.6719 6.426,7.332 1.875,0.7422 6.242,1.1914 13.086,1.3672 4.277,0.0781 8.086,-0.8203 11.425,-2.6953 3.34,-1.875 5,-3.8477 5,-5.9375 0,-3.3281 -2.441,-6.1602 -7.332,-8.49611 C 423.754,6.78906 417.875,5.625 411.02,5.625 c -8.594,0 -15.704,1.125 -21.368,3.37891 -16.816,6.77739 -25.234,16.36719 -25.234,28.76169 0,13.0547 9.016,23.7188 27.031,32.0117 9.785,4.5196 20.078,6.7852 30.891,6.7852 l 17.508,-8.5352 c -15.43,-0.7617 -27.95,-3.5156 -37.559,-8.2812 -13.367,-6.6992 -20.059,-15.2734 -20.059,-25.7227 0,-2.0898 0.95,-4.9804 2.833,-8.6523 3.417,-6.6211 9.414,-10.5469 17.968,-11.7969"
         style="fill:#1b6e44;fill-opacity:1;fill-rule:nonzero;stroke:none"
         id="path36"
         inkscape:connector-curvature="0" /><path
         d="M 547.691,67.8125 V 1.875 l -18.125,8.457 v 35 c 0,1.5821 -1.543,3.1172 -4.621,4.6094 -3.086,1.4961 -6.308,2.2461 -9.648,2.2461 -2.813,0 -4.93,-0.625 -6.336,-1.8555 -1.113,-1.2304 -1.113,-3.7695 0,-7.6172 L 496.09,40.3711 c 1.629,1.7187 1.629,3.2031 0,4.4336 -3.438,2.4609 -5.754,3.8867 -6.965,4.2969 -4.121,2.0507 -9.617,3.0859 -16.492,3.0859 -5.5,0 -10.363,-0.9375 -14.563,-2.793 -4.218,-1.8554 -6.316,-4.0898 -6.316,-6.7304 0,-3.3868 3.016,-5.6524 9.07,-6.8047 -0.683,0.9375 -1.035,1.8945 -1.035,2.9101 0,2.3633 1.68,4.2969 5.02,5.8203 3.351,1.5235 7.421,2.2852 12.226,2.2852 7.383,0.0781 12.695,-1.9922 15.957,-6.1914 2.754,-3.3594 3.438,-5.8008 2.071,-7.3125 -3.79,-4.543 -10.997,-6.8086 -21.622,-6.8086 -11.855,0 -21.289,1.7383 -28.32,5.2461 -7.039,3.4961 -10.555,8.0742 -10.555,13.75 0,4.668 2.567,8.7969 7.723,12.3711 5.832,4.0039 13.379,6.0351 22.656,6.1328 9.785,0.0781 18.36,-1.6406 25.743,-5.1758 l 1.796,-1.1133 c 1.543,1.418 4.043,2.7344 7.473,3.9571 3.426,1.2187 6.609,1.7851 9.52,1.707 5.5,-0.1562 10.05,-0.9961 13.652,-2.4883 1.543,-0.9492 3,-1.8164 4.375,-2.6094 0.684,-0.3125 1.367,-0.6757 2.062,-1.0625 v 10.5352 h -98.339 l -18.536,8.75 h 151.864 l 18.535,-8.75 h -35.399"
         style="fill:#1b6e44;fill-opacity:1;fill-rule:nonzero;stroke:none"
         id="path38"
         inkscape:connector-curvature="0" /><path
         d="m 583.941,69.7969 c -1.035,5.8281 -1.554,12.2539 -1.554,19.2656 l 9.941,-3.9648 c 0.86,-2.6368 2.043,-4.8633 3.574,-6.6797 0.684,-0.5078 1.614,-1.1133 2.805,-1.8555 h 19.129 l 17.852,-8.75 H 599.887 V 0 l -17.5,9.25781 V 56.6719 c 0,2.5 -1.035,4.4609 -3.086,5.8867 -4.981,3.4961 -11.153,5.2539 -18.535,5.2539 -0.86,0 -2.227,0 -4.121,0 l -18.008,8.4961 c 11.504,0.5859 20.254,0.6641 26.25,0.2539 8.242,-0.6055 14.59,-2.8516 19.054,-6.7656"
         style="fill:#1b6e44;fill-opacity:1;fill-rule:nonzero;stroke:none"
         id="path40"
         inkscape:connector-curvature="0" /><path
         d="M 709.379,67.8125 V 65.625 c 10.703,0 20.812,-2.2148 30.312,-6.6406 8.809,-4.1797 14.414,-8.8867 16.836,-14.1406 0.86,-2.0118 1.289,-3.8477 1.289,-5.5079 0,-3.5156 -2.058,-6.5625 -6.191,-9.1406 -4.473,-2.8515 -10.223,-4.2578 -17.273,-4.2578 -4.993,0 -9.454,0.8711 -13.411,2.6289 -3.953,1.7578 -5.937,3.8477 -5.937,6.2774 0,2.7539 2.832,5.2656 8.496,7.5195 3.254,0.5078 6.172,0.7617 8.742,0.7617 4.969,0 9.774,-1.0937 14.403,-3.2617 0.859,-0.332 1.289,-0.7031 1.289,-1.1211 0.168,-0.918 -2.071,-1.3789 -6.7,-1.3789 1.27,1.1719 1.895,1.9531 1.895,2.3828 0,3.4961 -3.086,6.7578 -9.266,9.7656 -7.043,3.418 -15.207,5.0899 -24.484,5.0117 V 2.8125 l -9.531,4.62891 c -2.743,4.00389 -4.629,6.46489 -5.664,7.38279 -1.719,1.836 -4.805,4.0625 -9.278,6.6406 -5.488,3.1758 -10.468,5.4297 -14.941,6.7696 -9.785,2.9179 -20.254,4.7148 -31.426,5.3789 l -20.086,11.8945 c 21.817,8.7695 46.18,15.293 73.113,19.5508 v 2.7539 H 614.75 l -18.184,8.75 h 167.579 l 17.765,-8.75 z M 665.824,47.6367 c -1.894,-0.6719 -6.094,-2.1289 -12.617,-4.3828 16.309,-3.7617 29.094,-9.1133 38.359,-16.0273 v 26.4179 c -10.976,-2.0898 -19.57,-4.0937 -25.742,-6.0078"
         style="fill:#1b6e44;fill-opacity:1;fill-rule:nonzero;stroke:none"
         id="path42"
         inkscape:connector-curvature="0" /><path
         d="m 848.023,50.7617 c 2.422,-0.5859 5.184,-1.7969 8.29,-3.6133 7.949,-4.7461 11.925,-9.4531 11.925,-14.1211 0,-1.582 -0.429,-3.1523 -1.289,-4.7382 -2.578,-4.0782 -7.129,-7.3711 -13.664,-9.8594 -6.531,-2.5 -14.09,-3.7422 -22.683,-3.7422 -15.637,0 -29.297,3.6523 -40.989,10.9961 -4.98,3.0781 -9.539,7.6172 -13.66,13.6133 -3.437,4.7461 -5.156,13.5742 -5.156,26.4922 6.883,-1.668 11.016,-2.8399 12.391,-3.5039 -0.516,-4.668 0.175,-8.6329 2.07,-11.8946 2.402,-4.5898 4.297,-7.625 5.676,-9.1289 3.269,-3.5078 8.086,-6.6328 14.453,-9.3867 7.566,-3.1719 14.883,-4.6289 21.941,-4.375 6.192,0.2461 11.699,0.8203 16.524,1.7383 6.886,1.4258 10.324,3.3008 10.324,5.625 0,0.8398 -0.391,1.6914 -1.164,2.5586 -0.77,0.8789 -1.856,1.3203 -3.231,1.3203 -0.519,0 -1.203,-0.0781 -2.062,-0.2344 -8.614,-1.7187 -15.77,-2.5703 -21.453,-2.5703 -4.825,0 -9.563,0.5391 -14.211,1.6211 -9.473,3.0859 -15.242,6.9922 -17.313,11.75 -0.519,1.4141 -0.773,2.7422 -0.773,3.9922 0,3.75 4.035,8.0859 12.101,13.0078 0.684,0.332 1.629,0.832 2.832,1.5039 h -46.086 l -18.015,8.75 h 172.722 l 17.766,-8.75 h -85.723 c -1.718,-0.3516 -4.035,-0.9766 -6.945,-1.9141 -0.691,-0.3515 -1.035,-0.6445 -1.035,-0.8984 0,-1.3555 3.691,-2.5977 11.074,-3.6914 6.867,-1.1133 12.356,-1.5703 16.477,-1.4063 3.945,0.168 12,1.211 24.187,3.1368 6.184,-3 13.555,-6.6719 22.141,-11 -5.285,-2.5 -9.973,-5.711 -14.063,-9.6172 -4.445,-4.168 -6.75,-7.8711 -6.914,-11.1211 -1.047,-2.7539 -1.562,-5.207 -1.562,-7.375 0,-4.5781 3.476,-10.625 10.437,-18.12502 -1.543,-0.74219 -2.832,-1.11328 -3.855,-1.11328 -1.887,0 -4.551,0.29297 -7.981,0.87109 -3.945,0.57422 -6.172,1.16016 -6.687,1.7461 -2.063,4.25001 -4.121,8.49611 -6.172,12.75391 -2.578,5.2344 -3.867,9.5312 -3.867,12.8633 0,5.164 2.312,10.8672 6.941,17.1172 -8.582,0.1679 -17.156,0.8789 -25.742,2.1289 -10.809,1.4961 -18.105,3.4101 -21.875,5.7422 -0.516,0.4101 -2.832,1.875 -6.953,4.375 -2.742,-0.2539 -6.309,-2.0977 -10.684,-5.5469 -4.375,-3.457 -6.562,-5.9766 -6.562,-7.5391 0,-1.9726 2.316,-2.9492 6.945,-2.9492 2.742,0 9.531,1.2695 20.34,3.8281 3.605,0.8008 6.008,1.2696 7.207,1.4375 1.543,0 2.832,-0.2539 3.859,-0.7539 h -0.254"
         style="fill:#1b6e44;fill-opacity:1;fill-rule:nonzero;stroke:none"
         id="path44"
         inkscape:connector-curvature="0" /><path
         d="m 1.94922,143.887 c 0,0 0.59375,-9.473 10.65238,-6.524 -1.4844,-8.269 -3.41801,-19.511 12.8632,-14.336 1.1915,-3.261 7.1094,-16.863 18.3477,-9.179"
         style="fill:none;stroke:#00a650;stroke-width:4.13800001;stroke-linecap:butt;stroke-linejoin:round;stroke-miterlimit:4;stroke-dasharray:none;stroke-opacity:1"
         id="path46"
         inkscape:connector-curvature="0" /><path
         d="m 64.2031,122.012 5.8985,5.898"
         style="fill:none;stroke:#00a650;stroke-width:4.13800001;stroke-linecap:butt;stroke-linejoin:round;stroke-miterlimit:4;stroke-dasharray:none;stroke-opacity:1"
         id="path48"
         inkscape:connector-curvature="0" /><path
         d="m 83.8438,135.48 c 0,0 28.6012,21.883 1.3945,42.372"
         style="fill:none;stroke:#00a650;stroke-width:4.13800001;stroke-linecap:butt;stroke-linejoin:round;stroke-miterlimit:4;stroke-dasharray:none;stroke-opacity:1"
         id="path50"
         inkscape:connector-curvature="0" /><path
         d="m 72.9063,175.879 c 0,0 -13.7618,-3.359 -13.1954,-11.211 -0.8398,17.676 2.2461,31.977 -18.2304,33.102 -5.3438,0.554 -18.5157,0.554 -23.5664,-12.907"
         style="fill:none;stroke:#00a650;stroke-width:4.13800001;stroke-linecap:butt;stroke-linejoin:round;stroke-miterlimit:4;stroke-dasharray:none;stroke-opacity:1"
         id="path52"
         inkscape:connector-curvature="0" /><path
         d="m 16.5078,176.172 c 0,0 0.8399,-7.012 1.9531,-9.551 -4.1992,-1.406 -8.1328,1.68 -12.61715,-6.738"
         style="fill:none;stroke:#00a650;stroke-width:4.13800001;stroke-linecap:butt;stroke-linejoin:round;stroke-miterlimit:4;stroke-dasharray:none;stroke-opacity:1"
         id="path54"
         inkscape:connector-curvature="0" /><path
         d="m 39.8008,198.336 c 0,0 -5.332,15.434 6.7265,20.484 -6.7265,0.551 -42.37105,6.727 -5.6132,39.543 -9.25,1.407 -32.82426,11.516 1.6875,31.153 -7.8516,6.445 -17.4024,10.937 -10.3907,26.652"
         style="fill:none;stroke:#00a650;stroke-width:4.13800001;stroke-linecap:butt;stroke-linejoin:round;stroke-miterlimit:4;stroke-dasharray:none;stroke-opacity:1"
         id="path56"
         inkscape:connector-curvature="0" /><path
         d="m 42.582,334.688 c 0,0 23.5743,26.929 36.2032,-9.547 8.9726,4.218 16.8242,7.867 22.1558,-5.606 5.899,0.563 28.907,-8.972 2.532,-27.215 1.121,-4.203 -1.399,-14.023 -1.399,-14.023 0,0 13.457,1.683 13.457,-1.692 3.926,8.141 35.352,38.711 38.157,-8.41"
         style="fill:none;stroke:#00a650;stroke-width:4.13800001;stroke-linecap:butt;stroke-linejoin:round;stroke-miterlimit:4;stroke-dasharray:none;stroke-opacity:1"
         id="path58"
         inkscape:connector-curvature="0" /><path
         d="m 66.3906,69.3164 c 0,0 6.1914,19.4649 5.7539,33.1836 -0.4492,13.73 3.4649,96.898 -0.4297,106.176 -4.1914,9.285 -11.6914,16.476 -11.6914,16.476 0,0 0.0586,8.5 3.4961,6.43 C 66.957,229.516 79.0469,214 79.0469,214 c 0,0 8.6133,26.199 -13.4571,43.445 -7.5859,6.903 -13.457,11.719 -11.0351,15.856 2.4219,-1.371 15.5078,-7.231 16.8945,-11.02 -1.3867,13.09 -6.2109,37.582 -9.6484,41.024 -1.3867,3.797 0.6836,4.136 4.1406,-2.41 3.4375,-6.543 12.0703,-22.758 17.9297,-14.825 5.8594,7.926 12.0703,26.891 9.6484,21.371 -2.4101,-5.511 -14.1406,-24.128 -12.0703,-35.511 2.0703,-11.379 3.8008,-36.207 10.6953,-33.793 6.8946,2.422 44.4925,36.554 38.6215,29.316 -5.86,-7.242 -34.8324,-38.273 -35.5277,-39.312 -0.6836,-1.036 -2.4024,-3.457 -3.7774,-5.176 -1.3789,-1.731 -5.8711,-7.934 -6.5546,-41.031 -0.6836,-33.106 -4.1407,-103.7895 1.0351,-111.3871 -8.2812,0 -19.5508,-1.2305 -19.5508,-1.2305 z"
         style="fill:none;stroke:#b6242a;stroke-width:4.13800001;stroke-linecap:butt;stroke-linejoin:miter;stroke-miterlimit:4;stroke-dasharray:none;stroke-opacity:1"
         id="path60"
         inkscape:connector-curvature="0" /><path
         d="m 62.6992,232.473 c 0,0 -6.6679,7.101 -4.3828,17.539 2.293,10.441 1.4531,10.863 -2.2969,5.433 -3.75,-5.433 -4.5898,-7.101 -5.2148,-7.308 -0.625,-0.211 -5.0195,-0.418 -5.0195,-0.418 0,0 -1.6602,0.836 -2.2852,0 -0.6328,-0.832 -1.4648,0 -1.25,-1.875 0.207,-1.879 2.2852,-2.094 3.332,-2.297 1.043,-0.211 7.5196,-4.188 7.7227,-9.817 1.0547,-2.71 -1.875,-5.429 -8.1445,-0.628 -2.5,0.425 -5.2149,1.675 -5.2149,0.425 0,-1.257 -1.0351,-2.089 1.0469,-3.351 2.0898,-1.246 7.0898,-5.836 9.1875,-6.043 2.0898,-0.211 5.4297,-0.422 7.5,-0.211 2.0898,0.211 2.3047,1.875 2.3047,1.875 0,0 0,5.844 2.7148,6.676"
         style="fill:#b6242a;fill-opacity:1;fill-rule:nonzero;stroke:none"
         id="path62"
         inkscape:connector-curvature="0" /><path
         d="m 38.0508,71.1523 c 0,0 7.2578,25.9375 6.0547,44.4337 -1.211,18.516 -5.8672,28.887 -22.9883,35.977 -1.3945,1.726 -1.9141,2.765 -0.1758,2.765 1.7188,0 18.6914,-4.59 19.0625,-0.617 0.3516,3.984 2.5195,28.203 3.2539,18.809 0.7305,-9.395 0.7305,-36.504 7.2344,-36.153 5.7812,4.688 13.3711,15.91 22.4219,12.285 0,-5.058 0,-8.672 0,-8.672 0,0 -15.918,-1.093 -17.3633,-18.445 -0.3594,-3.613 -0.3594,-4.699 -0.3594,-4.699 l 0.7227,-3.621 7.9492,7.234 c 0,0 -7.5899,-7.586 -8.6719,-11.211 -1.0859,-3.613 -5.0703,-29.6482 -1.8086,-37.5974 z"
         style="fill:none;stroke:#b6242a;stroke-width:4.13800001;stroke-linecap:butt;stroke-linejoin:miter;stroke-miterlimit:4;stroke-dasharray:none;stroke-opacity:1"
         id="path64"
         inkscape:connector-curvature="0" /><path
         d="m 166.762,146.133 c 0,0 9.726,20.117 14.765,25.969 2.266,5.671 17.207,18.343 18.496,-6.653 -0.644,-3.574 -2.429,-6.98 -9.726,-10.711 -1.141,-2.277 -0.977,-1.789 -0.176,-4.23 0.82,-2.422 5.52,-9.903 2.442,-17.852 -0.977,-3.73 -4.051,-13.32 2.929,-9.09 5.02,4.383 7.942,12.02 12.813,12.664 4.875,0.645 16.875,-1.953 13.144,-7.304 -3.73,-5.36 -9.394,-8.926 -10.371,-12.977 -0.996,-4.054 -2.441,-8.769 -4.394,-9.738 -1.934,-0.977 -7.137,-1.465 -12.989,-1.797 6.016,-0.312 12.18,3.086 19.805,-2.422 7.637,-5.5272 18.352,-10.3787 0.977,-20.7811 -8.602,-3.0859 -42.188,-13.789 -61.024,9.0938 -1.945,2.7617 -9.582,16.7183 18.34,18.6603 -7.961,-0.801 -21.262,-4.805 -20.09,3.566 1.172,8.367 1.68,22.586 11.719,28.934"
         style="fill:none;stroke:#231f20;stroke-width:4.13800001;stroke-linecap:butt;stroke-linejoin:miter;stroke-miterlimit:4;stroke-dasharray:none;stroke-opacity:1"
         id="path66"
         inkscape:connector-curvature="0" /><path
         d="m 276.703,203.879 h 43.906 L 197.504,301.109 75.3672,206.059 H 112.797 V 72.5586 H 17.7695 v -7.6172 c 5.7618,-1.0039 9.8243,-2.168 9.8243,-13.0078 0,-10.7031 -0.7227,-34.5313 -0.7227,-34.5313 2.1562,-4.9296 4.3359,-7.86324 10.8086,-7.86324 11.5234,0 241.1723,-0.80859 241.1723,-0.80859 5.039,0 10.793,-1.38672 11.515,10.13673 0,12.9297 0,34.5703 0,34.5703 0,2.168 0.731,10.8398 12.957,12.1992 0,1.5117 0,5.0664 0,5.0664 H 276.703 Z M 247.887,72.9102 c 0,0 -88.535,0 -107.981,0 0,0 0,58.2618 0.715,74.0628 8.641,48.968 43.914,50.445 53.992,51.812 50.391,-6.43 53.274,-45.269 54.004,-51.812 0,0 -0.73,-65.4105 -0.73,-74.0628"
         style="fill:#231f20;fill-opacity:1;fill-rule:nonzero;stroke:none"
         id="path68"
         inkscape:connector-curvature="0" /><path
         d="m 95.2695,38.8086 c 0.6524,0 0.8868,-2.6563 0.4961,-5.9766 -0.3515,-3.3593 -7.832,-6.0039 -16.6015,-6.0039 -8.75,0 -15.918,0.125 -15.918,0.3203 l 0.5977,0.4688 2.4492,0.2734 0.6367,0.3125 1.0625,1.2696 c 0.1758,0.3515 0.2734,1.3867 0.2734,3.1367 0,12.4297 -0.0468,23.8047 -0.0976,25.332 l -0.1758,0.4375 -1.1914,1.1719 -2.3828,0.5859 -1.1719,0.4492 c 0,0.2344 4.2891,0.3321 9.5508,0.3321 5.2344,0 9.5234,-0.0977 9.5234,-0.3321 l -0.7812,-0.4492 -2.6289,-0.2344 -0.6446,-0.3515 -1.0547,-1.2695 c -0.2031,-0.3399 -0.3007,-1.3868 -0.3007,-3.125 0,-12.0899 0.0468,-23.1446 0.1171,-24.7461 l 0.2149,-0.4688 1.2305,-1.0547 c 0.4375,-0.0781 1.4921,-0.2031 3.1718,-0.2031 1.6602,0 4.5703,0.125 6.4649,0.3398 0,0 0,0 1.2695,0.586 1.2617,0.664 2.375,1.7187 3.2617,3.0976 0.918,1.3946 1.8164,3.4453 2.6289,6.1016"
         style="fill:#ffffff;fill-opacity:1;fill-rule:nonzero;stroke:none"
         id="path70"
         inkscape:connector-curvature="0" /><path
         d="m 95.2695,38.8086 c 0.6524,0 0.8868,-2.6563 0.4961,-5.9766 -0.3515,-3.3593 -7.832,-6.0039 -16.6015,-6.0039 -8.75,0 -15.918,0.125 -15.918,0.3203 l 0.5977,0.4688 2.4492,0.2734 0.6367,0.3125 1.0625,1.2696 c 0.1758,0.3515 0.2734,1.3867 0.2734,3.1367 0,12.4297 -0.0468,23.8047 -0.0976,25.332 l -0.1758,0.4375 -1.1914,1.1719 -2.3828,0.5859 -1.1719,0.4492 c 0,0.2344 4.2891,0.3321 9.5508,0.3321 5.2344,0 9.5234,-0.0977 9.5234,-0.3321 l -0.7812,-0.4492 -2.6289,-0.2344 -0.6446,-0.3515 -1.0547,-1.2695 c -0.2031,-0.3399 -0.3007,-1.3868 -0.3007,-3.125 0,-12.0899 0.0468,-23.1446 0.1171,-24.7461 l 0.2149,-0.4688 1.2305,-1.0547 c 0.4375,-0.0781 1.4921,-0.2031 3.1718,-0.2031 1.6602,0 4.5703,0.125 6.4649,0.3398 0,0 0,0 1.2695,0.586 1.2617,0.664 2.375,1.7187 3.2617,3.0976 0.918,1.3946 1.8164,3.4453 2.6289,6.1016 z"
         style="fill:none;stroke:#ffffff;stroke-width:2.88000011;stroke-linecap:butt;stroke-linejoin:miter;stroke-miterlimit:4;stroke-dasharray:none;stroke-opacity:1"
         id="path72"
         inkscape:connector-curvature="0" /><path
         d="m 100.297,40.4297 c 0,2.4023 0.598,4.7266 1.816,6.9141 1.203,2.1875 2.91,3.9375 5.149,5.0585 2.246,1.1524 4.715,1.6993 7.468,1.6993 4.258,0 7.754,-1.2305 10.45,-3.8868 2.715,-2.6562 4.082,-5.9765 4.082,-10.0195 0,-4.043 -1.367,-7.4883 -4.121,-10.125 -2.743,-2.6484 -6.18,-4.0351 -10.352,-4.0351 -2.566,0 -5.019,0.5664 -7.363,1.7109 -2.332,1.0625 -4.11,2.8008 -5.313,4.8633 -1.218,2.1562 -1.816,4.8047 -1.816,7.8203 z m 7.617,-0.3516 c 0,-2.664 0.676,-4.7265 1.992,-6.0742 1.321,-1.543 2.93,-2.207 4.883,-2.207 1.934,0 3.547,0.664 4.844,2.207 1.308,1.3477 1.972,3.4102 1.972,6.1914 0,2.6367 -0.664,4.6094 -1.972,6.0938 -1.297,1.4062 -2.91,2.0898 -4.844,2.0898 -1.953,0 -3.562,-0.6836 -4.883,-2.0898 -1.316,-1.4844 -1.992,-3.5547 -1.992,-6.211"
         style="fill:#ffffff;fill-opacity:1;fill-rule:nonzero;stroke:none"
         id="path74"
         inkscape:connector-curvature="0" /><path
         d="m 100.297,40.4297 c 0,2.4023 0.598,4.7266 1.816,6.9141 1.203,2.1875 2.91,3.9375 5.149,5.0585 2.246,1.1524 4.715,1.6993 7.468,1.6993 4.258,0 7.754,-1.2305 10.45,-3.8868 2.715,-2.6562 4.082,-5.9765 4.082,-10.0195 0,-4.043 -1.367,-7.4883 -4.121,-10.125 -2.743,-2.6484 -6.18,-4.0351 -10.352,-4.0351 -2.566,0 -5.019,0.5664 -7.363,1.7109 -2.332,1.0625 -4.11,2.8008 -5.313,4.8633 -1.218,2.1562 -1.816,4.8047 -1.816,7.8203 z m 7.617,-0.3516 c 0,-2.664 0.676,-4.7265 1.992,-6.0742 1.321,-1.543 2.93,-2.207 4.883,-2.207 1.934,0 3.547,0.664 4.844,2.207 1.308,1.3477 1.972,3.4102 1.972,6.1914 0,2.6367 -0.664,4.6094 -1.972,6.0938 -1.297,1.4062 -2.91,2.0898 -4.844,2.0898 -1.953,0 -3.562,-0.6836 -4.883,-2.0898 -1.316,-1.4844 -1.992,-3.5547 -1.992,-6.211 z"
         style="fill:none;stroke:#ffffff;stroke-width:2.88000011;stroke-linecap:butt;stroke-linejoin:miter;stroke-miterlimit:4;stroke-dasharray:none;stroke-opacity:1"
         id="path76"
         inkscape:connector-curvature="0" /><path
         d="m 160.023,40.4297 v 0 c 4.161,-1.2891 6.165,-5.5547 4.465,-9.3555 0,0 0,0 -2.726,-1.9336 -2.715,-1.9922 -6.153,-2.9883 -10.313,-2.9883 -5.164,0 -9.402,1.7383 -12.734,5.0586 -3.301,3.3399 -4.949,7.9297 -4.949,13.8282 0,6.1132 1.668,10.9297 5,14.2578 3.328,3.4765 7.722,5.207 13.144,5.207 4.774,0 8.633,-1.3984 11.61,-4.0351 1.757,-1.6407 3.085,-3.7891 3.976,-6.7774 -4.269,-0.9453 -8.391,-0.2539 -9.16,1.6016 0,0 0,0 -1.457,1.1211 -1.465,1.1836 -3.231,1.6523 -5.332,1.6523 -2.871,0 -5.223,-0.9375 -7,-2.9101 -1.809,-1.9532 -2.707,-5.1563 -2.707,-9.6875 0,-4.5899 0.879,-7.9102 2.656,-9.9805 1.777,-1.9531 4.074,-2.8789 6.914,-2.8789 2.063,0 3.848,0.5547 5.371,1.8437 1.504,1.2422 2.578,3.2227 3.242,5.9766"
         style="fill:#ffffff;fill-opacity:1;fill-rule:nonzero;stroke:none"
         id="path78"
         inkscape:connector-curvature="0" /><path
         d="m 160.023,40.4297 v 0 c 4.161,-1.2891 6.165,-5.5547 4.465,-9.3555 0,0 0,0 -2.726,-1.9336 -2.715,-1.9922 -6.153,-2.9883 -10.313,-2.9883 -5.164,0 -9.402,1.7383 -12.734,5.0586 -3.301,3.3399 -4.949,7.9297 -4.949,13.8282 0,6.1132 1.668,10.9297 5,14.2578 3.328,3.4765 7.722,5.207 13.144,5.207 4.774,0 8.633,-1.3984 11.61,-4.0351 1.757,-1.6407 3.085,-3.7891 3.976,-6.7774 -4.269,-0.9453 -8.391,-0.2539 -9.16,1.6016 0,0 0,0 -1.457,1.1211 -1.465,1.1836 -3.231,1.6523 -5.332,1.6523 -2.871,0 -5.223,-0.9375 -7,-2.9101 -1.809,-1.9532 -2.707,-5.1563 -2.707,-9.6875 0,-4.5899 0.879,-7.9102 2.656,-9.9805 1.777,-1.9531 4.074,-2.8789 6.914,-2.8789 2.063,0 3.848,0.5547 5.371,1.8437 1.504,1.2422 2.578,3.2227 3.242,5.9766 z"
         style="fill:none;stroke:#ffffff;stroke-width:2.88000011;stroke-linecap:butt;stroke-linejoin:miter;stroke-miterlimit:4;stroke-dasharray:none;stroke-opacity:1"
         id="path80"
         inkscape:connector-curvature="0" /><path
         d="m 172.602,45.0391 c 0,3.789 0.597,7.0507 1.757,9.5703 0.899,1.8047 2.09,3.5547 3.594,5.0781 1.543,1.4648 3.215,2.6172 5,3.3398 2.414,0.9961 5.195,1.4766 8.371,1.4766 5.692,0 10.242,-1.7305 13.672,-5.0781 3.406,-3.457 5.125,-8.1445 5.125,-14.1602 0,-5.9883 -1.68,-10.7148 -5.078,-14.1914 -3.398,-3.3281 -7.949,-5.039 -13.633,-5.039 -5.762,0 -10.34,1.7109 -13.699,5.039 -3.41,3.3789 -5.109,8.0664 -5.109,13.9649 z m 8.086,0.2265 c 0,-4.1523 1.035,-7.375 3.027,-9.5703 2.023,-2.1601 4.59,-3.2344 7.676,-3.2344 3.105,0 5.664,1.0743 7.656,3.2344 1.992,2.1953 2.969,5.418 2.969,9.6563 0,4.2968 -0.957,7.5195 -2.911,9.6093 -1.914,2.0508 -4.511,3.1055 -7.714,3.1055 -3.211,0 -5.782,-1.0547 -7.754,-3.1055 -1.942,-2.2148 -2.949,-5.4296 -2.949,-9.6953"
         style="fill:#ffffff;fill-opacity:1;fill-rule:nonzero;stroke:none"
         id="path82"
         inkscape:connector-curvature="0" /><path
         d="m 172.602,45.0391 c 0,3.789 0.597,7.0507 1.757,9.5703 0.899,1.8047 2.09,3.5547 3.594,5.0781 1.543,1.4648 3.215,2.6172 5,3.3398 2.414,0.9961 5.195,1.4766 8.371,1.4766 5.692,0 10.242,-1.7305 13.672,-5.0781 3.406,-3.457 5.125,-8.1445 5.125,-14.1602 0,-5.9883 -1.68,-10.7148 -5.078,-14.1914 -3.398,-3.3281 -7.949,-5.039 -13.633,-5.039 -5.762,0 -10.34,1.7109 -13.699,5.039 -3.41,3.3789 -5.109,8.0664 -5.109,13.9649 z m 8.086,0.2265 c 0,-4.1523 1.035,-7.375 3.027,-9.5703 2.023,-2.1601 4.59,-3.2344 7.676,-3.2344 3.105,0 5.664,1.0743 7.656,3.2344 1.992,2.1953 2.969,5.418 2.969,9.6563 0,4.2968 -0.957,7.5195 -2.911,9.6093 -1.914,2.0508 -4.511,3.1055 -7.714,3.1055 -3.211,0 -5.782,-1.0547 -7.754,-3.1055 -1.942,-2.2148 -2.949,-5.4296 -2.949,-9.6953 z"
         style="fill:none;stroke:#ffffff;stroke-width:2.88000011;stroke-linecap:butt;stroke-linejoin:miter;stroke-miterlimit:4;stroke-dasharray:none;stroke-opacity:1"
         id="path84"
         inkscape:connector-curvature="0" /><path
         d="m 214.184,38.8086 v 0 c 4.218,0.4687 8.281,-1.1328 9.023,-3.457 0,0 0,0 1.406,-1.1407 1.387,-1.1445 3.282,-1.75 5.664,-1.75 2.5,0 4.407,0.4688 5.676,1.543 1.289,1.0156 1.914,2.1484 1.914,3.5547 l -0.82,2.3047 c -0.539,0.5664 -1.477,1.1523 -2.805,1.6015 -0.918,0.2149 -2.988,0.8125 -6.25,1.6016 -4.168,0.9375 -7.109,2.1992 -8.808,3.5547 -2.344,2.0703 -3.555,4.6602 -3.555,7.4805 0,1.8672 0.566,3.7109 1.68,5.3242 1.113,1.6015 2.734,2.8789 4.843,3.7969 2.09,0.8007 4.649,1.2812 7.598,1.2812 4.863,0 8.555,-1.0273 10.977,-3.1055 2.461,-1.9726 3.75,-4.7187 3.886,-8.1953 -4.316,-0.1172 -8.308,1.2891 -8.886,3.0078 0,0 0,0 -1.114,0.8008 -1.074,0.8008 -2.742,1.2696 -4.941,1.2696 -2.285,0 -4.043,-0.4688 -5.332,-1.3868 l -1.231,-2.1875 1.172,-2.3047 c 0.949,-0.8007 3.379,-1.6132 7.168,-2.4023 3.809,-0.918 6.602,-1.7461 8.43,-2.6562 1.824,-0.9454 3.211,-2.1875 4.277,-3.8086 1.016,-1.6016 1.532,-3.5821 1.532,-5.9766 0,-2.0703 -0.606,-4.1602 -1.856,-6.0156 -1.23,-1.8242 -2.988,-3.211 -5.215,-4.1211 -2.265,-0.918 -5.078,-1.3867 -8.437,-1.3867 -4.903,0 -8.653,1.1132 -11.278,3.3203 -2.629,2.1875 -4.191,5.3242 -4.718,9.4531"
         style="fill:#ffffff;fill-opacity:1;fill-rule:nonzero;stroke:none"
         id="path86"
         inkscape:connector-curvature="0" /><path
         d="m 214.184,38.8086 v 0 c 4.218,0.4687 8.281,-1.1328 9.023,-3.457 0,0 0,0 1.406,-1.1407 1.387,-1.1445 3.282,-1.75 5.664,-1.75 2.5,0 4.407,0.4688 5.676,1.543 1.289,1.0156 1.914,2.1484 1.914,3.5547 l -0.82,2.3047 c -0.539,0.5664 -1.477,1.1523 -2.805,1.6015 -0.918,0.2149 -2.988,0.8125 -6.25,1.6016 -4.168,0.9375 -7.109,2.1992 -8.808,3.5547 -2.344,2.0703 -3.555,4.6602 -3.555,7.4805 0,1.8672 0.566,3.7109 1.68,5.3242 1.113,1.6015 2.734,2.8789 4.843,3.7969 2.09,0.8007 4.649,1.2812 7.598,1.2812 4.863,0 8.555,-1.0273 10.977,-3.1055 2.461,-1.9726 3.75,-4.7187 3.886,-8.1953 -4.316,-0.1172 -8.308,1.2891 -8.886,3.0078 0,0 0,0 -1.114,0.8008 -1.074,0.8008 -2.742,1.2696 -4.941,1.2696 -2.285,0 -4.043,-0.4688 -5.332,-1.3868 l -1.231,-2.1875 1.172,-2.3047 c 0.949,-0.8007 3.379,-1.6132 7.168,-2.4023 3.809,-0.918 6.602,-1.7461 8.43,-2.6562 1.824,-0.9454 3.211,-2.1875 4.277,-3.8086 1.016,-1.6016 1.532,-3.5821 1.532,-5.9766 0,-2.0703 -0.606,-4.1602 -1.856,-6.0156 -1.23,-1.8242 -2.988,-3.211 -5.215,-4.1211 -2.265,-0.918 -5.078,-1.3867 -8.437,-1.3867 -4.903,0 -8.653,1.1132 -11.278,3.3203 -2.629,2.1875 -4.191,5.3242 -4.718,9.4531 z"
         style="fill:none;stroke:#ffffff;stroke-width:2.88000011;stroke-linecap:butt;stroke-linejoin:miter;stroke-miterlimit:4;stroke-dasharray:none;stroke-opacity:1"
         id="path88"
         inkscape:connector-curvature="0" /><path
         d="m 149.594,111.719 c 0,0 -1.043,-9.969 0.703,-16.4924 1.496,6.1404 2.539,10.4964 4.758,10.8674 2.234,0.383 5.234,1.543 5.234,1.543 0,0 -10.695,2.414 -10.695,4.59"
         style="fill:#231f20;fill-opacity:1;fill-rule:nonzero;stroke:none"
         id="path90"
         inkscape:connector-curvature="0" /></g></g></svg>